<svg width="36" height="36" viewBox="0 0 36 36" fill="none" xmlns="http://www.w3.org/2000/svg">
<path d="M27.6447 15.0113C28.2955 13.6935 28.7495 12.0407 28.7495 9.98371C28.7495 7.16175 27.6214 4.60737 25.5724 2.79062C23.5508 0.99797 20.8156 0.050622 17.6626 0.050622L6.79742 0C4.70024 0 3 1.70024 3 3.79742V36H22.0072C29.1047 36 33.2532 30.0797 33.2532 24.7395C33.2532 20.6825 31.001 16.9703 27.6455 15.0113H27.6447ZM17.6618 2.82758C22.7625 2.82758 25.9726 5.88496 25.9726 9.98371C25.9726 15.4846 21.8272 18.0004 17.6329 18.0004C13.6924 18.0004 10.447 14.755 10.447 9.72497V6.94802C10.447 5.12483 9.35663 3.48807 7.66924 2.94891V2.82758H17.661H17.6618Z" fill="white"/>
</svg>
