<svg width="37" height="36" viewBox="0 0 37 36" fill="none" xmlns="http://www.w3.org/2000/svg">
<path fill-rule="evenodd" clip-rule="evenodd" d="M35.926 15.9007C35.5073 12.2931 34.0085 8.8963 31.626 6.1552C29.2436 3.41415 26.0886 1.45679 22.5746 0.539659C25.6055 1.53095 28.2976 3.35257 30.3449 5.79749C32.3922 8.2424 33.7126 11.2126 34.1561 14.3705C30.4686 11.3535 24.5048 8.513 18.8798 10.2775C21.3562 12.525 21.9437 15.3239 19.3178 17.7336C22.1798 12.9611 16.4882 10.8542 13.6405 8.6608C11.3408 6.8874 12.7196 4.69577 14.4948 3.1602C16.4431 1.47325 19.3322 0.390069 21.4824 0.276519C17.4056 -0.496671 11.2507 0.305359 8.29132 3.26834C5.33194 6.2313 7.39016 10.2973 10.9948 13.5685C10.9948 13.5685 6.43134 17.9066 3.79998 21.0643C1.16862 24.2219 7.264 28.8268 7.264 28.8268C14.3326 23.6001 19.7774 27.895 22.4033 32.9991C19.6115 33.8765 16.6408 34.0207 13.7771 33.4177C10.9134 32.8148 8.25309 31.4851 6.05202 29.5565C3.85095 27.6279 2.18323 25.1653 1.20929 22.4056C0.235351 19.646 -0.0120269 16.6821 0.490955 13.7992C-0.119199 16.3595 -0.16116 19.0225 0.36802 21.6008C0.8972 24.1791 1.98468 26.6102 3.55401 28.7232C5.12335 30.8363 7.13645 32.5799 9.45181 33.8317C11.7672 35.0834 14.3286 35.8128 16.956 35.9686C19.5835 36.1244 22.2132 35.7029 24.6602 34.7336C27.1073 33.7643 29.3124 32.2708 31.1205 30.3581C32.9286 28.4453 34.2958 26.1598 35.126 23.6621C35.9562 21.1644 36.2293 18.5152 35.926 15.9007ZM11.5319 17.4362L9.00863 17.256L12.8457 13.8587L11.5319 17.4362Z" fill="white"/>
<path fill-rule="evenodd" clip-rule="evenodd" d="M4.97554 18.4709C6.74179 16.5515 8.72613 14.5924 9.76245 13.5849C7.04638 13.4984 4.60607 12.3936 4.81333 9.1728C4.99928 7.065 5.76464 5.04958 7.02475 3.34961C5.6973 4.34865 4.5114 5.52303 3.49945 6.8407C0.545482 10.6922 0.0858953 16.7137 4.97554 18.4709Z" fill="white"/>
</svg>
