<svg width="36" height="36" viewBox="0 0 36 36" fill="none" xmlns="http://www.w3.org/2000/svg">
<path d="M35.6166 0H0.382738C0.171358 0 0 0.173551 0 0.387636V4.36402C0 4.57811 0.171358 4.75166 0.382738 4.75166H32.8134C32.937 4.75166 33.0531 4.69119 33.1249 4.58928L35.9281 0.61288C36.109 0.356311 35.9279 0 35.6166 0Z" fill="white"/>
<path d="M35.5248 6.73155H12.3482C12.1368 6.73155 11.9654 6.9051 11.9654 7.11919V11.0956C11.9654 11.3097 12.1368 11.4832 12.3482 11.4832H32.7086C32.8319 11.4832 32.9477 11.423 33.0196 11.3215L35.8359 7.3451C36.0175 7.08864 35.8365 6.73155 35.5248 6.73155Z" fill="white"/>
<path d="M29.1668 13.4631H12.3482C12.1368 13.4631 11.9654 13.6366 11.9654 13.8507V17.8271C11.9654 18.0412 12.1368 18.2148 12.3482 18.2148H26.3415C26.4646 18.2148 26.5802 18.1547 26.6521 18.0535L29.4774 14.0772C29.6596 13.8207 29.4787 13.4631 29.1668 13.4631Z" fill="white"/>
<path d="M5.22601 35.6116V7.11919C5.22601 6.9051 5.39737 6.73155 5.60875 6.73155H9.33035C9.54173 6.73155 9.71308 6.9051 9.71308 7.11919V30.3119C9.71308 30.3924 9.68832 30.471 9.64224 30.5366L5.92065 35.8363C5.70463 36.1439 5.22601 35.9891 5.22601 35.6116Z" fill="white"/>
</svg>
